<?xml version="1.0" encoding="utf-8"?>
<!-- Generator: Adobe Illustrator 16.0.0, SVG Export Plug-In . SVG Version: 6.00 Build 0)  -->
<!DOCTYPE svg PUBLIC "-//W3C//DTD SVG 1.1//EN" "http://www.w3.org/Graphics/SVG/1.1/DTD/svg11.dtd">
<svg version="1.1" xmlns="http://www.w3.org/2000/svg" xmlns:xlink="http://www.w3.org/1999/xlink" x="0px" y="0px" width="112.5px"
	 height="94.5px" viewBox="0 0 112.5 94.5" enable-background="new 0 0 112.5 94.5" xml:space="preserve">
<g id="Guides_For_Artboard">
</g>
<g id="FONDO">
</g>
<g id="LOGO">
</g>
<g id="Layer_2">
	<path fill="#00C0F3" d="M98.453,65.427l0.004,0.035l-8.756,0.006c-4.634,4.999-10.804,8.55-17.761,9.906v17.513l-0.005,0V93.5
		H2.379c0.569-0.094,1.112-0.147,1.577-0.173l0.022-0.046c-1.095-1.473-3.093-4.699-1.84-7.271c1.134-2.327,4.325-2.889,6.282-3.01
		c-1.111-1.618-2.625-4.466-1.495-6.787c1.196-2.456,4.681-2.946,6.591-3.025c-1.115-1.549-2.892-4.604-1.692-7.068
		c1.217-2.499,4.802-2.962,6.688-3.029c-1.112-1.538-2.925-4.62-1.717-7.101c1.23-2.526,4.882-2.972,6.751-3.031
		c-1.109-1.526-2.958-4.636-1.741-7.136c1.238-2.543,4.936-2.979,6.791-3.033c0.064-0.142,0.128-0.286,0.192-0.433
		c0.614-3.11-2.805-7.424-1.618-10.286c1.207-2.911,6.688-3.538,8.42-6.125c1.746-2.607,0.238-7.91,2.449-10.12
		s7.513-0.704,10.12-2.449c2.588-1.732,3.215-7.213,6.125-8.42c2.861-1.187,7.177,2.233,10.286,1.618
		c3.018-0.597,5.695-5.42,8.889-5.42c3.538,0,7.276,2.057,7.276,8.877v3.98c9.348,4.856,16.059,14.072,17.446,24.956
		c7.182,0.228,12.902,6.144,12.834,13.365C110.947,59.376,105.395,65.068,98.453,65.427z"/>
	<g>
		<g>
			<path fill="#FFFFFF" d="M73.546,75.082c-7.044,0.982-13.75-0.957-19.421-5.161c-1.297-0.961-2.542,1.21-1.262,2.158
				c6.252,4.635,13.643,6.488,21.348,5.414C75.802,77.271,75.122,74.862,73.546,75.082L73.546,75.082z"/>
		</g>
	</g>
	<g>
		<g>
			<path fill="#FFFFFF" d="M92.156,19.994c-4.988-5.97-11.826-9.401-19.535-10.145c-1.605-0.155-1.59,2.347,0,2.5
				c7.054,0.681,13.225,3.976,17.768,9.413C91.423,23,93.182,21.222,92.156,19.994L92.156,19.994z"/>
		</g>
	</g>
	<g>
		<defs>
			<rect id="SVGID_1_" x="69.373" y="49.44" width="41.006" height="3.696"/>
		</defs>
		<use xlink:href="#SVGID_1_"  overflow="visible" fill="#0060A2"/>
		<clipPath id="SVGID_2_">
			<use xlink:href="#SVGID_1_"  overflow="visible"/>
		</clipPath>
		<g clip-path="url(#SVGID_2_)">
			<path fill="#0060A2" d="M82.775,49.553l1.632,2.44c0.286,0.427,0.916,0.419,1.192-0.014l1.55-2.44
				c0.301-0.474-0.039-1.093-0.6-1.093h-3.184C82.797,48.446,82.458,49.08,82.775,49.553z"/>
			<path fill="#0060A2" d="M87.099,49.553l1.631,2.44c0.286,0.427,0.917,0.419,1.192-0.014l1.551-2.44
				c0.301-0.474-0.04-1.093-0.6-1.093H87.69C87.122,48.446,86.782,49.08,87.099,49.553z"/>
			<path fill="#0060A2" d="M74.079,49.553l1.633,2.44c0.286,0.427,0.916,0.419,1.192-0.014l1.55-2.44
				c0.301-0.474-0.039-1.093-0.6-1.093H74.67C74.102,48.446,73.762,49.08,74.079,49.553z"/>
			<path fill="#0060A2" d="M78.403,49.553l1.632,2.44c0.286,0.427,0.917,0.419,1.192-0.014l1.551-2.44
				c0.301-0.474-0.04-1.093-0.601-1.093h-3.183C78.426,48.446,78.086,49.08,78.403,49.553z"/>
			<path fill="#0060A2" d="M91.423,49.553l1.632,2.44c0.285,0.427,0.916,0.419,1.191-0.014l1.551-2.44
				c0.301-0.474-0.04-1.093-0.601-1.093h-3.183C91.446,48.446,91.106,49.08,91.423,49.553z"/>
			<path fill="#0060A2" d="M95.747,49.553l1.633,2.44c0.285,0.427,0.916,0.419,1.191-0.014l1.551-2.44
				c0.301-0.474-0.039-1.093-0.602-1.093h-3.181C95.769,48.446,95.43,49.08,95.747,49.553z"/>
			<path fill="#0060A2" d="M100.07,49.553l1.633,2.44c0.285,0.427,0.916,0.419,1.191-0.014l1.551-2.44
				c0.301-0.474-0.039-1.093-0.602-1.093h-3.182C100.092,48.446,99.754,49.08,100.07,49.553z"/>
			<path fill="#0060A2" d="M104.395,49.553l1.631,2.44c0.287,0.427,0.916,0.419,1.193-0.014l1.551-2.44
				c0.301-0.474-0.039-1.093-0.602-1.093h-3.182C104.416,48.446,104.078,49.08,104.395,49.553z"/>
		</g>
	</g>
	<circle fill="#DF4D26" cx="62.209" cy="33.341" r="5.608"/>
	<circle fill="#DF4D26" cx="94.9" cy="33.341" r="5.608"/>
</g>
</svg>
